<mxfile host="65bd71144e">
    <diagram id="LSQk2_rmXy1utTlEToDS" name="Page-1">
        <mxGraphModel dx="942" dy="656" grid="1" gridSize="10" guides="1" tooltips="1" connect="1" arrows="1" fold="1" page="1" pageScale="1" pageWidth="850" pageHeight="1100" math="0" shadow="0">
            <root>
                <mxCell id="0"/>
                <mxCell id="1" parent="0"/>
                <mxCell id="31" value="als buurman aangeeft te stoppen" style="whiteSpace=wrap;html=1;labelBackgroundColor=#18141D;fontColor=#FFFFFF;align=left;verticalAlign=top;" vertex="1" parent="1">
                    <mxGeometry x="230" y="630" width="330" height="90" as="geometry"/>
                </mxCell>
                <mxCell id="2" value="return koffie met melk" style="whiteSpace=wrap;html=1;" vertex="1" parent="1">
                    <mxGeometry x="230" y="720" width="330" height="40" as="geometry"/>
                </mxCell>
                <mxCell id="3" value="&lt;span style=&quot;color: rgb(255, 255, 255);&quot;&gt;melk-in-je-koffie-doen(buurvrouw)&lt;/span&gt;" style="whiteSpace=wrap;html=1;" vertex="1" parent="1">
                    <mxGeometry x="230" y="180" width="170" height="60" as="geometry"/>
                </mxCell>
                <mxCell id="6" value="&lt;font color=&quot;#ffffff&quot;&gt;melk-in-je-koffie-doen(buurvrouw)&lt;/font&gt;" style="text;html=1;align=center;verticalAlign=middle;resizable=0;points=[];autosize=1;strokeColor=none;fillColor=none;fontColor=none;" vertex="1" parent="1">
                    <mxGeometry x="230" y="470" width="210" height="30" as="geometry"/>
                </mxCell>
                <mxCell id="10" value="" style="edgeStyle=none;html=1;fontColor=#FFFFFF;" edge="1" parent="1" source="7">
                    <mxGeometry relative="1" as="geometry">
                        <mxPoint x="395" y="130" as="targetPoint"/>
                    </mxGeometry>
                </mxCell>
                <mxCell id="7" value="loop naar buurvrouw" style="whiteSpace=wrap;html=1;labelBackgroundColor=#18141D;fontColor=#FFFFFF;" vertex="1" parent="1">
                    <mxGeometry x="230" y="60" width="340" height="60" as="geometry"/>
                </mxCell>
                <mxCell id="11" value="" style="whiteSpace=wrap;html=1;labelBackgroundColor=#18141D;fontColor=#FFFFFF;" vertex="1" parent="1">
                    <mxGeometry x="230" y="120" width="340" height="60" as="geometry"/>
                </mxCell>
                <mxCell id="12" value="" style="edgeStyle=none;orthogonalLoop=1;jettySize=auto;html=1;fontColor=#FFFFFF;endArrow=none;endFill=0;entryX=0.5;entryY=1;entryDx=0;entryDy=0;" edge="1" parent="1" target="11">
                    <mxGeometry width="100" relative="1" as="geometry">
                        <mxPoint x="230" y="120" as="sourcePoint"/>
                        <mxPoint x="330" y="120" as="targetPoint"/>
                        <Array as="points"/>
                    </mxGeometry>
                </mxCell>
                <mxCell id="13" value="" style="edgeStyle=none;orthogonalLoop=1;jettySize=auto;html=1;fontColor=#FFFFFF;endArrow=none;endFill=0;entryX=1;entryY=1;entryDx=0;entryDy=0;exitX=0;exitY=0;exitDx=0;exitDy=0;" edge="1" parent="1" source="18" target="7">
                    <mxGeometry width="100" relative="1" as="geometry">
                        <mxPoint x="395" y="180" as="sourcePoint"/>
                        <mxPoint x="560" y="240" as="targetPoint"/>
                        <Array as="points"/>
                    </mxGeometry>
                </mxCell>
                <mxCell id="14" value="true" style="text;strokeColor=none;align=center;fillColor=none;html=1;verticalAlign=middle;whiteSpace=wrap;rounded=0;labelBackgroundColor=#18141D;fontColor=#FFFFFF;" vertex="1" parent="1">
                    <mxGeometry x="230" y="150" width="60" height="30" as="geometry"/>
                </mxCell>
                <mxCell id="15" value="false" style="text;strokeColor=none;align=center;fillColor=none;html=1;verticalAlign=middle;whiteSpace=wrap;rounded=0;labelBackgroundColor=#18141D;fontColor=#FFFFFF;" vertex="1" parent="1">
                    <mxGeometry x="500" y="150" width="60" height="30" as="geometry"/>
                </mxCell>
                <mxCell id="16" value="buurvrouw wilt melk geven" style="text;strokeColor=none;align=center;fillColor=none;html=1;verticalAlign=middle;whiteSpace=wrap;rounded=0;labelBackgroundColor=#18141D;fontColor=#FFFFFF;" vertex="1" parent="1">
                    <mxGeometry x="365" y="130" width="60" height="30" as="geometry"/>
                </mxCell>
                <mxCell id="18" value="ga terug naar huis" style="whiteSpace=wrap;html=1;labelBackgroundColor=#18141D;fontColor=#FFFFFF;" vertex="1" parent="1">
                    <mxGeometry x="400" y="180" width="170" height="120" as="geometry"/>
                </mxCell>
                <mxCell id="19" value="bedank buurvrouw en ga terug naar huis" style="whiteSpace=wrap;html=1;labelBackgroundColor=#18141D;fontColor=#FFFFFF;" vertex="1" parent="1">
                    <mxGeometry x="230" y="240" width="170" height="60" as="geometry"/>
                </mxCell>
                <mxCell id="22" value="schenk melk in" style="whiteSpace=wrap;html=1;" vertex="1" parent="1">
                    <mxGeometry x="290" y="670" width="270" height="50" as="geometry"/>
                </mxCell>
                <mxCell id="29" value="ga pak melk halen" style="whiteSpace=wrap;html=1;" vertex="1" parent="1">
                    <mxGeometry x="230" y="500" width="330" height="40" as="geometry"/>
                </mxCell>
                <mxCell id="30" value="draai dop eraf" style="whiteSpace=wrap;html=1;" vertex="1" parent="1">
                    <mxGeometry x="230" y="540" width="330" height="40" as="geometry"/>
                </mxCell>
                <mxCell id="32" value="vraag aan buurman om aan te geven wanneer te stoppen" style="whiteSpace=wrap;html=1;labelBackgroundColor=#18141D;fontColor=#FFFFFF;" vertex="1" parent="1">
                    <mxGeometry x="230" y="580" width="330" height="50" as="geometry"/>
                </mxCell>
            </root>
        </mxGraphModel>
    </diagram>
</mxfile>